<?xml version="1.0" encoding="utf-8"?>
<!-- Generator: Adobe Illustrator 17.1.0, SVG Export Plug-In . SVG Version: 6.00 Build 0)  -->
<!DOCTYPE svg PUBLIC "-//W3C//DTD SVG 1.1//EN" "http://www.w3.org/Graphics/SVG/1.1/DTD/svg11.dtd">
<svg version="1.1" id="Layer_1" xmlns="http://www.w3.org/2000/svg" xmlns:xlink="http://www.w3.org/1999/xlink" x="0px" y="0px"
	 viewBox="0 0 322.5 75.6" enable-background="new 0 0 322.5 75.6" xml:space="preserve">
<g>
	<linearGradient id="SVGID_1_" gradientUnits="userSpaceOnUse" x1="22.4901" y1="47.7621" x2="22.4901" y2="2.386445e-005">
		<stop  offset="0" style="stop-color:#2D8DB6"/>
		<stop  offset="1" style="stop-color:#4CBEB9"/>
	</linearGradient>
	<path fill="url(#SVGID_1_)" d="M40.3,12.5C40.3,12.5,40.3,12.5,40.3,12.5c-0.2-0.1-0.4-0.2-0.7-0.3c0,0,0,0-0.1,0
		c-0.2-0.1-0.4-0.2-0.7-0.3c0,0,0,0,0,0c-0.2-0.1-0.5-0.2-0.7-0.2c0,0,0,0-0.1,0c-0.2-0.1-0.5-0.1-0.7-0.2c0,0-0.1,0-0.1,0
		c-0.2,0-0.5-0.1-0.7-0.1c0,0-0.1,0-0.1,0c-0.2,0-0.5,0-0.7,0h0h0h0c-5,0-9.1,4.1-9.1,9.1v0.1h0v0.1c0,2.3-1.9,4.2-4.2,4.2
		s-4.2-1.9-4.2-4.2v-3.1h0V9.1c0-5-4.1-9.1-9.1-9.1h0C4.1,0,0,4.1,0,9.1v38.6h4.9V9.1c0-2.3,1.9-4.2,4.2-4.2s4.2,1.9,4.2,4.2v6.6h0
		v4.8c0,5,4.1,9.1,9.1,9.1h0c5,0,9.1-4.1,9.1-9.1h0v0v-0.2c0-2.3,1.9-4.2,4.2-4.2c0.2,0,0.4,0,0.5,0c0,0,0.1,0,0.1,0
		c0.1,0,0.3,0.1,0.4,0.1c0,0,0.1,0,0.1,0c0.2,0,0.3,0.1,0.5,0.2c0,0,0.1,0,0.1,0c0.1,0.1,0.3,0.1,0.4,0.2c0,0,0.1,0,0.1,0.1
		c0.1,0.1,0.3,0.2,0.4,0.3c0,0,0,0,0,0c0.1,0.1,0.3,0.2,0.4,0.4c0,0,0,0,0.1,0.1c0.1,0.1,0.2,0.2,0.3,0.3c0,0,0,0,0.1,0.1
		c0.1,0.1,0.2,0.3,0.3,0.5c0.3,0.6,0.5,1.3,0.5,2V24h0v19.6H45V32.2V24v-3.6C45,17,43.1,14,40.3,12.5z"/>
	<linearGradient id="SVGID_2_" gradientUnits="userSpaceOnUse" x1="35.8375" y1="75.6206" x2="35.8375" y2="18.4978">
		<stop  offset="0" style="stop-color:#E93C33"/>
		<stop  offset="1" style="stop-color:#F78D20"/>
	</linearGradient>
	<path fill="url(#SVGID_2_)" d="M62.5,18.5L62.5,18.5c-5,0-9.1,4.1-9.1,9.1v19.5h0v9.6c0,2.3-1.9,4.2-4.2,4.2S45,59.1,45,56.8v-3.9
		h0V42.5c0-5-4.1-9.1-9.1-9.1h0c-5,0-9.1,4.1-9.1,9.1v0.9h0V51c0,2.3-1.9,4.2-4.2,4.2s-4.2-1.9-4.2-4.2v-3.7h0V36.7
		c0-5-4.1-9.1-9.1-9.1h0c-5,0-9.1,4.1-9.1,9.1V59h0v7.4c0,5,4.1,9.1,9.1,9.1h0h53.4v0c5,0,9.1-4.1,9.1-9.1V27.6
		C71.7,22.6,67.6,18.5,62.5,18.5z M66.8,66.5c0,2.3-1.9,4.2-4.2,4.2v0H9.1h0c-2.3,0-4.2-1.9-4.2-4.2V44.2h0v-7.5
		c0-2.3,1.9-4.2,4.2-4.2s4.2,1.9,4.2,4.2v6.7h0V51c0,5,4.1,9.1,9.1,9.1h0c5,0,9.1-4.1,9.1-9.1v-2.4h0v-6.1c0-2.3,1.9-4.2,4.2-4.2
		s4.2,1.9,4.2,4.2V47h0v9.7c0,5,4.1,9.1,9.1,9.1h0c5,0,9.1-4.1,9.1-9.1V34.4h0v-6.8c0-2.3,1.9-4.2,4.2-4.2s4.2,1.9,4.2,4.2V66.5z"/>
</g>
<g>
	<path fill="#344645" d="M132.9,48.2c0.7,0,1.4,0.3,1.9,0.8c0.5,0.5,0.8,1.1,0.8,1.9c0,0.7-0.3,1.4-0.8,1.9
		c-0.5,0.5-1.2,0.8-1.9,0.8h-13.7c-0.1,0-0.1,0-0.2,0c-0.7,0-1.4-0.3-1.9-0.8c-0.5-0.5-0.8-1.2-0.8-1.9V24.8c0-0.7,0.3-1.4,0.8-1.9
		s1.2-0.8,1.9-0.8h13.9c0.7,0,1.4,0.3,1.9,0.8c0.5,0.5,0.8,1.2,0.8,1.9c0,0.7-0.3,1.4-0.8,1.9c-0.5,0.5-1.2,0.8-1.9,0.8h-11.2v11.9
		h8.5c0.7,0,1.4,0.3,1.9,0.8c0.5,0.5,0.8,1.2,0.8,1.9c0,0.7-0.3,1.4-0.8,1.9c-0.5,0.5-1.2,0.8-1.9,0.8h-8.5v3.6H132.9z"/>
	<path fill="#344645" d="M141.8,53.6c-0.7,0-1.4-0.3-1.9-0.8c-0.5-0.5-0.8-1.2-0.8-1.9V24.7c0-0.7,0.3-1.4,0.8-1.9
		c0.5-0.5,1.2-0.8,1.9-0.8h6.4c3.1,0,5.8,1.1,8,3.3c2.2,2.2,3.3,4.9,3.3,8c0,2.8-0.9,5.3-2.8,7.4c1.9,1.4,2.8,3.3,2.8,5.7
		c0,2-0.7,3.7-2.1,5.1c-1.4,1.4-3.1,2.1-5.1,2.1H141.8z M144.4,39.2h3.8c1.6,0,3-0.6,4.2-1.7c1.2-1.2,1.7-2.5,1.7-4.2
		c0-1.6-0.6-3-1.7-4.2c-1.2-1.2-2.6-1.7-4.2-1.7h-3.8V39.2z M144.4,48.2h7.9c0.5,0,0.9-0.2,1.3-0.5c0.3-0.4,0.5-0.8,0.5-1.3
		s-0.2-0.9-0.5-1.3c-0.4-0.4-0.8-0.5-1.3-0.5h-7.9V48.2z"/>
	<path fill="#344645" d="M172.8,53.6c-3.3,0-6-1.1-8-3.3c-2.1-2.2-3.1-5.1-3.1-8.6V34c0-3.5,1-6.3,3.1-8.6c2.1-2.2,4.7-3.3,8-3.3
		h0.1c3.3,0,6,1.1,8,3.3c2.1,2.2,3.1,5.1,3.1,8.6v7.7c0,3.5-1,6.4-3.1,8.6C178.9,52.5,176.2,53.6,172.8,53.6L172.8,53.6z
		 M172.8,27.4c-1.8,0-3.2,0.6-4.3,1.8c-1,1.2-1.6,2.8-1.6,4.8v7.7c0,2,0.5,3.6,1.6,4.8c1,1.2,2.5,1.8,4.3,1.8h0.1
		c1.8,0,3.2-0.6,4.3-1.8c1-1.2,1.6-2.8,1.6-4.8V34c0-2-0.5-3.6-1.6-4.8C176.2,28,174.7,27.4,172.8,27.4L172.8,27.4z"/>
	<path fill="#344645" d="M190.8,53.6c-0.7,0-1.4-0.3-1.9-0.8c-0.5-0.5-0.8-1.1-0.8-1.9V24.8c0-0.7,0.3-1.4,0.8-1.9
		c0.5-0.5,1.1-0.8,1.9-0.8c0.7,0,1.4,0.3,1.9,0.8c0.5,0.5,0.8,1.2,0.8,1.9v23.4h8.3c0.7,0,1.4,0.3,1.9,0.8c0.5,0.5,0.8,1.2,0.8,1.9
		c0,0.7-0.3,1.4-0.8,1.9c-0.5,0.5-1.2,0.8-1.9,0.8H190.8z"/>
	<path fill="#344645" d="M229.9,50c0.3,0.7,0.2,1.4-0.1,2c-0.3,0.7-0.8,1.1-1.5,1.4c-0.3,0.1-0.6,0.2-0.9,0.2
		c-0.6,0-1.1-0.2-1.5-0.5c-0.5-0.3-0.8-0.7-1-1.3l-2.7-7.2h-9l-2.7,7.2c-0.2,0.5-0.5,1-1,1.3c-0.5,0.3-1,0.5-1.5,0.5
		c-0.3,0-0.6-0.1-0.9-0.2c-0.7-0.3-1.2-0.7-1.5-1.4c-0.3-0.7-0.3-1.3-0.1-2l9.7-26.2c0,0,0,0,0-0.1c0-0.1,0.1-0.1,0.1-0.1
		c0,0,0,0,0-0.1c0-0.1,0.1-0.1,0.1-0.1c0,0,0-0.1,0.1-0.1c0,0,0.1-0.1,0.1-0.1c0,0,0-0.1,0.1-0.1c0,0,0.1-0.1,0.1-0.1
		c0,0,0,0,0.1-0.1c0,0,0.1-0.1,0.1-0.1c0,0,0,0,0.1-0.1c0,0,0.1-0.1,0.1-0.1c0,0,0.1,0,0.1-0.1c0,0,0.1-0.1,0.1-0.1
		c0,0,0.1,0,0.1-0.1c0,0,0.1,0,0.1,0c0,0,0.1,0,0.2-0.1c0.1,0,0.1,0,0.1,0c0,0,0.1,0,0.2,0c0,0,0.1,0,0.1,0c0,0,0.1,0,0.2,0
		c0.1,0,0.1,0,0.1,0c0,0,0.1,0,0.2,0c0.1,0,0.1,0,0.1,0c0,0,0.1,0,0.1,0c0.1,0,0.1,0,0.1,0c0,0,0.1,0,0.1,0c0.1,0,0.1,0,0.1,0l0.1,0
		c0.1,0,0.1,0,0.2,0c0,0,0,0,0.1,0c0.1,0,0.1,0,0.2,0h0c0,0,0,0,0.1,0c0.1,0,0.1,0.1,0.1,0.1c0,0,0.1,0,0.1,0.1c0.1,0,0.1,0,0.1,0
		c0,0,0,0,0.1,0.1c0.1,0,0.1,0.1,0.1,0.1c0,0,0,0.1,0.1,0.1c0,0,0.1,0.1,0.1,0.1c0,0,0.1,0.1,0.1,0.1c0,0,0.1,0.1,0.1,0.1
		c0,0,0,0,0.1,0.1c0,0,0.1,0.1,0.1,0.1c0,0,0,0,0.1,0.1s0.1,0.1,0.1,0.1c0,0,0,0.1,0.1,0.1c0,0,0,0.1,0,0.1c0,0,0,0.1,0.1,0.1
		c0,0.1,0,0.1,0,0.1L229.9,50z M220.3,39.3l-2.5-6.8l-2.5,6.8H220.3z"/>
	<path fill="#344645" d="M249.7,22.1c0.7,0,1.4,0.3,1.9,0.8c0.5,0.5,0.8,1.2,0.8,1.9c0,0.7-0.3,1.4-0.8,1.9
		c-0.5,0.5-1.2,0.8-1.9,0.8h-4.8v23.5c0,0.7-0.3,1.4-0.8,1.9c-0.5,0.5-1.1,0.8-1.9,0.8c-0.7,0-1.4-0.3-1.9-0.8
		c-0.5-0.5-0.8-1.1-0.8-1.9V27.4h-4.8c-0.7,0-1.4-0.3-1.9-0.8c-0.5-0.5-0.8-1.1-0.8-1.9c0-0.7,0.3-1.4,0.8-1.9
		c0.5-0.5,1.1-0.8,1.9-0.8H249.7z"/>
	<path fill="#344645" d="M264.7,53.6c-3.3,0-6-1.1-8-3.3c-2.1-2.2-3.1-5.1-3.1-8.6V34c0-3.5,1-6.3,3.1-8.6c2.1-2.2,4.7-3.3,8-3.3
		h0.1c3.3,0,6,1.1,8,3.3c2.1,2.2,3.1,5.1,3.1,8.6v7.7c0,3.5-1,6.4-3.1,8.6C270.8,52.5,268.1,53.6,264.7,53.6L264.7,53.6z
		 M264.7,27.4c-1.8,0-3.2,0.6-4.3,1.8c-1,1.2-1.6,2.8-1.6,4.8v7.7c0,2,0.5,3.6,1.6,4.8c1,1.2,2.5,1.8,4.3,1.8h0.1
		c1.8,0,3.2-0.6,4.3-1.8c1-1.2,1.6-2.8,1.6-4.8V34c0-2-0.5-3.6-1.6-4.8C268,28,266.6,27.4,264.7,27.4L264.7,27.4z"/>
	<path fill="#344645" d="M298,49.3c0.4,0.6,0.6,1.2,0.5,2c-0.1,0.7-0.4,1.3-1,1.8c-0.5,0.4-1,0.5-1.6,0.5c-0.9,0-1.6-0.4-2.1-1.1
		l-5.9-7.9h-2.4v6.3c0,0.7-0.3,1.4-0.8,1.9c-0.5,0.5-1.2,0.8-1.9,0.8c-0.7,0-1.4-0.3-1.9-0.8c-0.5-0.5-0.8-1.1-0.8-1.9V24.8
		c0-0.7,0.3-1.4,0.8-1.9c0.5-0.5,1.1-0.8,1.9-0.8h7.2c3.1,0,5.7,1.1,8,3.3c2.2,2.2,3.3,4.9,3.3,8c0,2.4-0.7,4.5-2,6.4
		c-1.3,1.9-3.1,3.3-5.2,4.1L298,49.3z M285.4,39.3h4.5c1.6,0,3-0.6,4.2-1.8c1.2-1.2,1.7-2.6,1.7-4.2c0-1.6-0.6-3-1.7-4.2
		c-1.2-1.2-2.6-1.7-4.2-1.7h-4.5V39.3z"/>
	<path fill="#344645" d="M320.8,22.3c0.7,0.3,1.2,0.8,1.5,1.4c0.3,0.7,0.3,1.4,0,2l-6.8,16.7v8.4c0,0.7-0.3,1.4-0.8,1.9
		c-0.5,0.5-1.2,0.8-1.9,0.8c-0.7,0-1.4-0.3-1.9-0.8c-0.5-0.5-0.8-1.2-0.8-1.9v-8.4l-6.8-16.7c-0.3-0.7-0.3-1.4,0-2
		c0.3-0.7,0.8-1.2,1.4-1.4c0.7-0.3,1.4-0.3,2,0c0.7,0.3,1.2,0.8,1.4,1.4l4.6,11.2l4.6-11.2c0.3-0.7,0.7-1.2,1.4-1.4
		S320.1,22,320.8,22.3z"/>
	<path fill="#344645" d="M113,23.7c-0.3-0.7-0.8-1.1-1.5-1.3c-0.7-0.2-1.4-0.2-2,0.1c-0.7,0.3-1.1,0.8-1.3,1.5L102,42.5l-2.4-7.1h0
		c-0.1-0.4-0.3-0.7-0.6-1c-0.5-0.5-1.2-0.8-1.9-0.8c-0.7,0-1.4,0.3-1.9,0.8c-0.3,0.3-0.5,0.6-0.6,1h0l-2.4,7.1L86.2,24
		c-0.2-0.7-0.7-1.2-1.3-1.5c-0.6-0.3-1.3-0.4-2-0.1c-0.7,0.2-1.2,0.7-1.5,1.3c-0.3,0.6-0.4,1.3-0.1,2l8.6,26.1c0.2,0.6,0.5,1,1,1.3
		c0.5,0.3,1,0.5,1.6,0.5s1.1-0.2,1.5-0.5c0.5-0.3,0.8-0.8,1-1.3l2.3-7.1l2.3,7.1c0.2,0.6,0.5,1,1,1.3c0.5,0.3,1,0.5,1.5,0.5
		s1.1-0.2,1.6-0.5c0.5-0.3,0.8-0.8,1-1.3l8.6-26.1C113.4,25,113.4,24.3,113,23.7z"/>
</g>
<g>
</g>
<g>
</g>
<g>
</g>
<g>
</g>
<g>
</g>
<g>
</g>
</svg>
